<svg width="16" height="16" viewBox="0 0 16 16" fill="none" xmlns="http://www.w3.org/2000/svg">
<path d="M11 14V12.6667C11 11.9594 10.719 11.2811 10.219 10.781C9.71886 10.281 9.04058 10 8.33333 10H3.66667C2.95942 10 2.28115 10.281 1.78105 10.781C1.28095 11.2811 1 11.9594 1 12.6667V14" stroke="#88B091" stroke-width="1.5" stroke-linecap="round" stroke-linejoin="round"/>
<path d="M5.99967 7.33333C7.47243 7.33333 8.66634 6.13943 8.66634 4.66667C8.66634 3.19391 7.47243 2 5.99967 2C4.52691 2 3.33301 3.19391 3.33301 4.66667C3.33301 6.13943 4.52691 7.33333 5.99967 7.33333Z" stroke="#88B091" stroke-width="1.5" stroke-linecap="round" stroke-linejoin="round"/>
<path d="M13 5V9" stroke="#88B091" stroke-width="1.5" stroke-linecap="round" stroke-linejoin="round"/>
<path d="M15 7H11" stroke="#88B091" stroke-width="1.5" stroke-linecap="round" stroke-linejoin="round"/>
</svg>
