<svg width="14" height="13" viewBox="0 0 14 13" fill="none" xmlns="http://www.w3.org/2000/svg">
<path d="M6.07203 1.31085C6.40793 0.474379 7.59207 0.47438 7.92797 1.31085L8.83505 3.56967C8.97809 3.92587 9.3124 4.16876 9.69538 4.19473L12.1239 4.3594C13.0233 4.42038 13.3892 5.54656 12.6975 6.12451L10.8295 7.68521C10.5349 7.93132 10.4072 8.32433 10.5009 8.69658L11.0947 11.0572C11.3147 11.9313 10.3567 12.6273 9.59325 12.1481L7.53171 10.8538C7.20661 10.6497 6.79339 10.6497 6.46829 10.8538L4.40675 12.1481C3.64333 12.6273 2.68534 11.9313 2.90526 11.0572L3.49911 8.69658C3.59276 8.32433 3.46507 7.93132 3.1705 7.68521L1.30254 6.12451C0.610806 5.54656 0.976727 4.42038 1.87606 4.3594L4.30463 4.19473C4.6876 4.16876 5.02191 3.92587 5.16495 3.56967L6.07203 1.31085Z" fill="#88B091"/>
</svg>
