<svg width="20" height="19" viewBox="0 0 20 19" fill="none" xmlns="http://www.w3.org/2000/svg">
<g clip-path="url(#clip0)">
<path d="M2 16.9648H4C4 18.0678 4.897 18.9648 6 18.9648H14C15.103 18.9648 16 18.0678 16 16.9648H18C19.103 16.9648 20 16.0678 20 14.9648V4.96484C20 3.86184 19.103 2.96484 18 2.96484H16C16 1.86184 15.103 0.964844 14 0.964844H6C4.897 0.964844 4 1.86184 4 2.96484H2C0.897 2.96484 0 3.86184 0 4.96484V14.9648C0 16.0678 0.897 16.9648 2 16.9648ZM18 4.96484V14.9648H16V4.96484H18ZM6 2.96484H14L14.001 16.9648H6V2.96484ZM2 4.96484H4V14.9648H2V4.96484Z" fill="white"/>
</g>
<defs>
<clipPath id="clip0">
<rect width="20" height="18" fill="white" transform="translate(0 0.964844)"/>
</clipPath>
</defs>
</svg>
