<svg width="24" height="25" viewBox="0 0 24 25" fill="none" xmlns="http://www.w3.org/2000/svg">
<path d="M12 2.96484C6.486 2.96484 2 7.45084 2 12.9648C2 18.4788 6.486 22.9648 12 22.9648C17.514 22.9648 22 18.4788 22 12.9648C22 7.45084 17.514 2.96484 12 2.96484ZM12 20.9648C7.589 20.9648 4 17.3758 4 12.9648C4 8.55384 7.589 4.96484 12 4.96484C16.411 4.96484 20 8.55384 20 12.9648C20 17.3758 16.411 20.9648 12 20.9648Z" fill="white"/>
<path d="M13 7.96484H11V13.9648H17V11.9648H13V7.96484Z" fill="white"/>
</svg>
