<svg width="24" height="25" viewBox="0 0 24 25" fill="none" xmlns="http://www.w3.org/2000/svg">
<path d="M12 2.96484C6.486 2.96484 2 7.45084 2 12.9648C2 18.4788 6.486 22.9648 12 22.9648C17.514 22.9648 22 18.4788 22 12.9648C22 7.45084 17.514 2.96484 12 2.96484ZM12 20.9648C7.589 20.9648 4 17.3758 4 12.9648C4 8.55384 7.589 4.96484 12 4.96484C16.411 4.96484 20 8.55384 20 12.9648C20 17.3758 16.411 20.9648 12 20.9648Z" fill="white"/>
<path d="M12 11.9648C10 11.9648 10 11.3388 10 10.9648C10 10.4808 10.701 9.96484 12 9.96484C13.185 9.96484 13.386 10.6028 13.4 10.9828L14.4 10.9648H15.4C15.4 9.93884 14.734 8.49584 13 8.08584V6.97684H11V8.04984C9.029 8.38084 8 9.67684 8 10.9648C8 12.0848 8.52 13.9648 12 13.9648C14 13.9648 14 14.6408 14 14.9648C14 15.3798 13.38 15.9648 12 15.9648C10.159 15.9648 10.011 15.1078 10 14.9648H8C8 15.8828 8.661 17.5178 11 17.8848V18.9648H13V17.8798C14.971 17.5498 16 16.2528 16 14.9648C16 13.8448 15.48 11.9648 12 11.9648Z" fill="white"/>
</svg>
