<svg width="16" height="10" viewBox="0 0 16 10" fill="none" xmlns="http://www.w3.org/2000/svg">
<path d="M15.3369 7.33444C14.8605 6.76306 14.2999 6.27541 13.7695 5.75759C13.291 5.29083 13.2608 5.02007 13.6455 4.48135C14.0653 3.89339 14.5168 3.32797 14.9405 2.74266C15.3359 2.19566 15.7402 1.65014 15.9482 0.995192C16.0802 0.578511 15.9635 0.394462 15.5362 0.321506C15.4626 0.308738 15.3865 0.308075 15.3115 0.308075L12.7765 0.305091C12.4642 0.300448 12.2916 0.436578 12.1812 0.713315C12.0321 1.08738 11.8784 1.46112 11.7009 1.82209C11.2979 2.64053 10.8479 3.4316 10.217 4.10148C10.0779 4.24921 9.92404 4.43592 9.69158 4.35898C9.40074 4.25286 9.31502 3.77367 9.31983 3.61167L9.31734 0.685625C9.26097 0.267617 9.16828 0.0812469 8.75326 0L6.11986 0.000497473C5.76835 0.000497473 5.59209 0.136296 5.40439 0.35616C5.29612 0.48317 5.26345 0.565578 5.48597 0.607694C5.92305 0.690599 6.16927 0.973471 6.2346 1.41171C6.3394 2.11192 6.3321 2.81496 6.27174 3.51799C6.254 3.72326 6.21869 3.92804 6.13727 4.11972C6.00993 4.42099 5.80433 4.48234 5.53422 4.29697C5.28965 4.12917 5.11787 3.89239 4.94974 3.65462C4.31817 2.76223 3.81428 1.79987 3.4034 0.788593C3.28468 0.496435 3.0799 0.31935 2.77034 0.314542C2.00977 0.302437 1.24903 0.300448 0.48846 0.315205C0.0308246 0.323827 -0.105637 0.546012 0.0807334 0.960869C0.90912 2.80352 1.83119 4.59493 3.0348 6.22683C3.65278 7.06434 4.36228 7.80368 5.27888 8.32764C6.31767 8.92158 7.4359 9.10032 8.61364 9.04527C9.16513 9.0194 9.33077 8.87598 9.35631 8.32632C9.37355 7.95026 9.41616 7.57636 9.60171 7.23844C9.78376 6.90682 10.0595 6.84364 10.3774 7.04991C10.5364 7.15321 10.6704 7.2847 10.7969 7.42332C11.1073 7.76289 11.4065 8.11275 11.7287 8.44089C12.1328 8.8521 12.6115 9.09501 13.2134 9.04544L15.5433 9.04593C15.9187 9.02139 16.1134 8.5611 15.8978 8.1421C15.7465 7.84862 15.5478 7.5873 15.3369 7.33444Z" fill="#88B091"/>
</svg>
